# xmcd
#
# Track frame offsets:
#	150
#	11610
#	23943
#	35162
#	46340
#	57898
#	69941
#	80537
#	93256
#	104645
#	116198
#	127841
#	138646
#	150589
#	162554
#
# Disc length: 2315 seconds
#
# Revision: 0
# Processed by: cddbd v1.5.2PL0 Copyright (c) Steve Scherf et al.
# Submitted via: EasyCDDAExtractor 11.1.0.1
#
DISCID=ca09090f
DTITLE=Jim Reeves - I love you
DYEAR=1900
DGENRE=country
TTITLE0=Yonder comes a sucker
TTITLE1=Drinking tequila
TTITLE2=Red eyed and rowdy
TTITLE3=Tahiti
TTITLE4=Whispering Williow
TTITLE5=The wilder your heart beats
TTITLE6=Beatin' on a ding song
TTITLE7=Echo bonita
TTITLE8=I love you
TTITLE9=If you love me dont leave me
TTITLE10=I'll follow you
TTITLE11=My rambling heart
TTITLE12=Padre of old San Antone
TTITLE13=Shall we gather at the river
TTITLE14=Penny candy
EXTD=
EXTT0=
EXTT1=
EXTT2=
EXTT3=
EXTT4=
EXTT5=
EXTT6=
EXTT7=
EXTT8=
EXTT9=
EXTT10=
EXTT11=
EXTT12=
EXTT13=
EXTT14=
PLAYORDER=
